<?xml version="1.0" encoding="utf-8"?>
<!-- Generator: Adobe Illustrator 23.0.1, SVG Export Plug-In . SVG Version: 6.00 Build 0)  -->
<svg version="1.1" id="Layer_1" xmlns="http://www.w3.org/2000/svg" xmlns:xlink="http://www.w3.org/1999/xlink" x="0px" y="0px"
	 viewBox="0 0 99.14 51.26" style="enable-background:new 0 0 99.14 51.26;" xml:space="preserve">
<style type="text/css">
	.st0{fill:#FFFFFF;}
	.st1{fill:#78CDD1;}
</style>
<g>
	<g>
		<path class="st0" d="M84.54,11.19v5c-1.36-1.9-2.95-3.32-4.76-4.27c-1.81-0.95-3.83-1.42-6.06-1.42c-3.86,0-7.17,1.39-9.92,4.17
			c-2.75,2.78-4.12,6.13-4.12,10.04c0,4,1.36,7.39,4.08,10.18c2.72,2.79,6,4.18,9.85,4.18c2.16,0,4.16-0.45,5.98-1.35
			c1.82-0.9,3.47-2.24,4.93-4.02v4.67h3.45V11.19H84.54z M81.66,17.03c2.07,2.11,3.11,4.74,3.11,7.88c0,2.06-0.46,3.92-1.39,5.56
			c-0.92,1.65-2.24,2.95-3.95,3.92c-1.71,0.97-3.53,1.45-5.44,1.45c-1.9,0-3.67-0.49-5.33-1.46c-1.65-0.97-2.97-2.33-3.95-4.08
			c-0.98-1.75-1.47-3.58-1.47-5.49c0-1.93,0.49-3.76,1.46-5.49c0.97-1.73,2.28-3.07,3.93-4.03c1.65-0.96,3.44-1.43,5.39-1.43
			C77.04,13.86,79.59,14.92,81.66,17.03"/>
	</g>
	<rect x="50.15" y="11.19" class="st0" width="3.5" height="27.17"/>
	<g>
		<path class="st0" d="M49.87,0.85c-0.57,0.57-0.85,1.25-0.85,2.05c0,0.78,0.28,1.46,0.85,2.02c0.56,0.57,1.24,0.85,2.01,0.85
			c0.79,0,1.47-0.28,2.04-0.85c0.56-0.57,0.85-1.24,0.85-2.02c0-0.8-0.28-1.48-0.85-2.05C53.36,0.28,52.68,0,51.89,0
			C51.11,0,50.43,0.28,49.87,0.85"/>
	</g>
	<polygon class="st0" points="36.39,1.1 36.39,11.19 31.62,11.19 31.62,14.21 36.39,14.21 36.39,38.36 39.89,38.36 39.89,14.21
		45.43,14.21 45.43,11.19 39.89,11.19 39.89,1.1 	"/>
	<g>
		<path class="st0" d="M24.67,13.46c-1.17-0.88-2.58-1.6-4.26-2.15c-1.67-0.55-3.41-0.82-5.21-0.82c-2.86,0-5.45,0.63-7.77,1.9
			c-2.31,1.27-4.13,3.03-5.46,5.28C0.66,19.92,0,22.37,0,25c0,3.91,1.41,7.24,4.24,9.96c2.83,2.73,6.39,4.1,10.69,4.1
			c2.8,0,5.29-0.54,7.48-1.62c2.19-1.08,3.93-2.6,5.23-4.55l-2.77-1.82c-2.53,3.18-5.79,4.77-9.78,4.77c-2.18,0-4.15-0.48-5.9-1.45
			c-1.75-0.97-3.13-2.32-4.14-4.07c-1-1.75-1.51-3.61-1.51-5.59c0-3.04,1.09-5.63,3.28-7.76c2.19-2.13,4.93-3.19,8.24-3.19
			c4.14,0,7.41,1.59,9.8,4.77l2.77-1.72C26.83,15.47,25.84,14.34,24.67,13.46"/>
		<path class="st1" d="M5.86,51.26c2.44,0,4.42-1.95,4.42-4.36c0-2.41-1.98-4.37-4.42-4.37s-4.42,1.95-4.42,4.37
			C1.43,49.31,3.41,51.26,5.86,51.26"/>
		<path class="st1" d="M18.94,51.26c2.44,0,4.42-1.95,4.42-4.36c0-2.41-1.98-4.37-4.42-4.37s-4.42,1.95-4.42,4.37
			C14.51,49.31,16.49,51.26,18.94,51.26"/>
		<path class="st1" d="M32.01,51.26c2.44,0,4.42-1.95,4.42-4.36c0-2.41-1.98-4.37-4.42-4.37c-2.44,0-4.42,1.95-4.42,4.37
			C27.59,49.31,29.57,51.26,32.01,51.26"/>
		<path class="st1" d="M84.33,51.26c2.44,0,4.42-1.95,4.42-4.36c0-2.41-1.98-4.37-4.42-4.37c-2.44,0-4.42,1.95-4.42,4.37
			C79.9,49.31,81.88,51.26,84.33,51.26"/>
		<path class="st1" d="M45.09,51.26c2.44,0,4.42-1.95,4.42-4.36c0-2.41-1.98-4.37-4.42-4.37c-2.44,0-4.42,1.95-4.42,4.37
			C40.67,49.31,42.65,51.26,45.09,51.26"/>
		<path class="st1" d="M58.17,51.26c2.44,0,4.42-1.95,4.42-4.36c0-2.41-1.98-4.37-4.42-4.37c-2.44,0-4.42,1.95-4.42,4.37
			C53.75,49.31,55.73,51.26,58.17,51.26"/>
		<path class="st1" d="M71.25,51.26c2.44,0,4.42-1.95,4.42-4.36c0-2.41-1.98-4.37-4.42-4.37c-2.44,0-4.42,1.95-4.42,4.37
			C66.82,49.31,68.8,51.26,71.25,51.26"/>
	</g>
	<polygon class="st0" points="93.23,11.5 91.84,11.5 91.84,11.24 94.92,11.24 94.92,11.5 93.53,11.5 93.53,15.6 93.23,15.6 	"/>
	<g>
		<path class="st0" d="M95.75,11.24h0.43l0.91,2.56c0.06,0.16,0.11,0.32,0.17,0.48c0.06,0.16,0.11,0.32,0.17,0.49h0.03
			c0.06-0.16,0.11-0.32,0.17-0.49c0.05-0.16,0.11-0.32,0.17-0.48l0.91-2.56h0.44v4.36h-0.3v-2.86c0-0.18,0-0.38,0.01-0.58
			c0.01-0.21,0.02-0.41,0.03-0.59h-0.03l-0.34,0.97l-0.94,2.59h-0.26l-0.95-2.59l-0.34-0.97H96c0.01,0.19,0.02,0.38,0.03,0.59
			c0.01,0.21,0.01,0.4,0.01,0.58v2.86h-0.28V11.24z"/>
	</g>
</g>
</svg>
