<svg width="29" height="32" xmlns="http://www.w3.org/2000/svg">
  <path d="M23.75 22.34a4.58 4.58 0 0 1 4.48 4.48 4.68 4.68 0 0 1-2.26 3.92 4.2 4.2 0 0 1-4.44 0 4.68 4.68 0 0 1-2.18-4.92L8.43 19.45a4.55 4.55 0 0 1-3.18 1.22 4.7 4.7 0 0 1-4.63-4.63 4.7 4.7 0 0 1 4.63-4.63c1.23.01 2.3.42 3.18 1.24l10.84-6.3a4.46 4.46 0 0 1 .48-3.37 4.7 4.7 0 0 1 4-2.32 4.7 4.7 0 0 1 4.63 4.63 4.7 4.7 0 0 1-4.63 4.63c-1.13-.01-2.2-.44-3.18-1.3L9.73 14.97c.1.44.14.79.14 1.03 0 .25-.04.62-.14 1.11l10.99 6.37a4.52 4.52 0 0 1 3.03-1.15z" fill="#ffffff" fill-rule="evenodd"/>
</svg>
