<?xml version="1.0" encoding="UTF-8"?>
<svg width="28px" height="28px" viewBox="0 0 28 28" version="1.1" xmlns="http://www.w3.org/2000/svg" xmlns:xlink="http://www.w3.org/1999/xlink">
    <!-- Generator: Sketch 51.1 (57501) - http://www.bohemiancoding.com/sketch -->
    <title>fbook</title>
    <desc>Created with Sketch.</desc>
    <defs></defs>
    <g id="Page-1" stroke="none" stroke-width="1" fill="none" fill-rule="evenodd">
        <g id="v" transform="translate(-28.000000, -31.000000)" fill="#ffffff">
            <g id="fbook" transform="translate(28.000000, 31.000000)">
                <path d="M22.4405029,0 C25.2995093,0 27.6190805,2.31957122 27.6190805,5.1785776 L27.6190805,22.4405029 C27.6190805,25.2995093 25.2995093,27.6190805 22.4405029,27.6190805 L19.0600426,27.6190805 L19.0600426,16.9202831 L22.6382958,16.9202831 L23.177731,12.7486511 L19.0600426,12.7486511 L19.0600426,10.0874376 C19.0600426,8.88269908 19.3837037,8.07354633 21.1278774,8.07354633 L23.3215804,8.05556516 L23.3215804,4.33346251 C22.9439758,4.27951899 21.6313502,4.17163196 20.1209317,4.17163196 C16.9382642,4.17163196 14.7445612,6.11359856 14.7445612,9.67387066 L14.7445612,12.7486511 L11.1483268,12.7486511 L11.1483268,16.9202831 L14.7445612,16.9202831 L14.7445612,27.6190805 L5.1785776,27.6190805 C2.31957122,27.6190805 0,25.2995093 0,22.4405029 L0,5.1785776 C0,2.31957122 2.31957122,0 5.1785776,0 L22.4405029,0 Z" id="facebook-square---FontAwesome"></path>
            </g>
        </g>
    </g>
</svg>