<?xml version="1.0" encoding="UTF-8"?>
<svg width="28px" height="28px" viewBox="0 0 28 28" version="1.1" xmlns="http://www.w3.org/2000/svg" xmlns:xlink="http://www.w3.org/1999/xlink">
    <!-- Generator: Sketch 51.1 (57501) - http://www.bohemiancoding.com/sketch -->
    <title>insta</title>
    <desc>Created with Sketch.</desc>
    <defs></defs>
    <g id="Page-1" stroke="none" stroke-width="1" fill="none" fill-rule="evenodd">
        <g id="v" transform="translate(-89.000000, -31.000000)">
            <g id="insta" transform="translate(89.000000, 31.000000)">
                <path d="M27.6190805,5.1785776 L27.6190805,22.4405029 C27.6190805,25.2995093 25.2995093,27.6190805 22.4405029,27.6190805 L5.1785776,27.6190805 C2.31957122,27.6190805 0,25.2995093 0,22.4405029 L0,5.1785776 C0,2.31957122 2.31957122,0 5.1785776,0 L22.4405029,0 C25.2995093,0 27.6190805,2.31957122 27.6190805,5.1785776 Z" id="Path-Copy" fill="#848891"></path>
                <path d="M17.3011208,13.8106641 C17.3011208,11.888186 15.7331422,10.3202074 13.8106641,10.3202074 C11.888186,10.3202074 10.3202074,11.888186 10.3202074,13.8106641 C10.3202074,15.7331422 11.888186,17.3011208 13.8106641,17.3011208 C15.7331422,17.3011208 17.3011208,15.7331422 17.3011208,13.8106641 Z M19.1826951,13.8106641 C19.1826951,16.7830061 16.7830061,19.1826951 13.8106641,19.1826951 C10.8383221,19.1826951 8.4386331,16.7830061 8.4386331,13.8106641 C8.4386331,10.8383221 10.8383221,8.4386331 13.8106641,8.4386331 C16.7830061,8.4386331 19.1826951,10.8383221 19.1826951,13.8106641 Z M20.6552315,8.22047956 C20.6552315,8.91584398 20.0962131,9.47486243 19.4008486,9.47486243 C18.7054842,9.47486243 18.1464658,8.91584398 18.1464658,8.22047956 C18.1464658,7.52511514 18.7054842,6.96609669 19.4008486,6.96609669 C20.0962131,6.96609669 20.6552315,7.52511514 20.6552315,8.22047956 Z M13.8106641,5.22086834 C12.2835893,5.22086834 9.01128615,5.09815697 7.63419191,5.64354083 C7.15698104,5.83442518 6.80248153,6.06621332 6.43434743,6.43434743 C6.06621332,6.80248153 5.83442518,7.15698104 5.64354083,7.63419191 C5.09815697,9.01128615 5.22086834,12.2835893 5.22086834,13.8106641 C5.22086834,15.3377389 5.09815697,18.610042 5.64354083,19.9871363 C5.83442518,20.4643472 6.06621332,20.8188467 6.43434743,21.1869808 C6.80248153,21.5551149 7.15698104,21.786903 7.63419191,21.9777874 C9.01128615,22.5231712 12.2835893,22.4004598 13.8106641,22.4004598 C15.3377389,22.4004598 18.610042,22.5231712 19.9871363,21.9777874 C20.4643472,21.786903 20.8188467,21.5551149 21.1869808,21.1869808 C21.5551149,20.8188467 21.786903,20.4643472 21.9777874,19.9871363 C22.5231712,18.610042 22.4004598,15.3377389 22.4004598,13.8106641 C22.4004598,12.2835893 22.5231712,9.01128615 21.9777874,7.63419191 C21.786903,7.15698104 21.5551149,6.80248153 21.1869808,6.43434743 C20.8188467,6.06621332 20.4643472,5.83442518 19.9871363,5.64354083 C18.610042,5.09815697 15.3377389,5.22086834 13.8106641,5.22086834 Z M24.2820342,13.8106641 C24.2820342,15.2559313 24.2956688,16.6875639 24.2138612,18.1328312 C24.1320536,19.8098865 23.7502849,21.2960575 22.5231712,22.5231712 C21.2960575,23.7502849 19.8098865,24.1320536 18.1328312,24.2138612 C16.6875639,24.2956688 15.2559313,24.2820342 13.8106641,24.2820342 C12.3653969,24.2820342 10.9337642,24.2956688 9.48849703,24.2138612 C7.81144166,24.1320536 6.32527065,23.7502849 5.09815697,22.5231712 C3.8710433,21.2960575 3.4892746,19.8098865 3.40746702,18.1328312 C3.32565944,16.6875639 3.33929404,15.2559313 3.33929404,13.8106641 C3.33929404,12.3653969 3.32565944,10.9337642 3.40746702,9.48849703 C3.4892746,7.81144166 3.8710433,6.32527065 5.09815697,5.09815697 C6.32527065,3.8710433 7.81144166,3.4892746 9.48849703,3.40746702 C10.9337642,3.32565944 12.3653969,3.33929404 13.8106641,3.33929404 C15.2559313,3.33929404 16.6875639,3.32565944 18.1328312,3.40746702 C19.8098865,3.4892746 21.2960575,3.8710433 22.5231712,5.09815697 C23.7502849,6.32527065 24.1320536,7.81144166 24.2138612,9.48849703 C24.2956688,10.9337642 24.2820342,12.3653969 24.2820342,13.8106641 Z" id="instagram---FontAwesome" fill="#F7F9FB"></path>
            </g>
        </g>
    </g>
</svg>