<?xml version="1.0" encoding="UTF-8"?>
<svg width="19px" height="19px" viewBox="0 0 19 19" version="1.1" xmlns="http://www.w3.org/2000/svg" xmlns:xlink="http://www.w3.org/1999/xlink">
    <!-- Generator: Sketch 51.2 (57519) - http://www.bohemiancoding.com/sketch -->
    <title>link - FontAwesome</title>
    <desc>Created with Sketch.</desc>
    <defs></defs>
    <g id="Headers" stroke="none" stroke-width="1" fill="none" fill-rule="evenodd">
        <g id="header-singlepost-simple" transform="translate(-83.000000, -1121.000000)" fill="#2F3238">
            <path d="M99.2500194,1134.42857 C99.2500194,1134.13839 99.1384121,1133.87053 98.937519,1133.66964 L96.6160877,1131.34821 C96.4151946,1131.14731 96.1361764,1131.03571 95.8571582,1131.03571 C95.5334971,1131.03571 95.2768003,1131.15847 95.0535858,1131.39285 C95.4218898,1131.76115 95.8571582,1132.07365 95.8571582,1132.64285 C95.8571582,1133.23437 95.3772469,1133.71428 94.7857283,1133.71428 C94.2165312,1133.71428 93.9040309,1133.27901 93.5357268,1132.91071 C93.3013516,1133.13392 93.1674228,1133.39062 93.1674228,1133.72544 C93.1674228,1134.00446 93.2790301,1134.28348 93.4799232,1134.48437 L95.7790331,1136.79464 C95.9799262,1136.99553 96.2589444,1137.09598 96.5379626,1137.09598 C96.8169808,1137.09598 97.0959989,1136.99553 97.296892,1136.8058 L98.937519,1135.17634 C99.1384121,1134.97544 99.2500194,1134.70759 99.2500194,1134.42857 Z M91.4040279,1126.56025 C91.4040279,1126.28124 91.2924206,1126.00222 91.0915275,1125.80132 L88.7924176,1123.49105 C88.5915245,1123.29016 88.3125063,1123.17855 88.0334881,1123.17855 C87.75447,1123.17855 87.4754518,1123.29016 87.2745587,1123.47989 L85.6339317,1125.10936 C85.4330386,1125.31025 85.3214313,1125.57811 85.3214313,1125.85713 C85.3214313,1126.14731 85.4330386,1126.41516 85.6339317,1126.61606 L87.9553631,1128.93749 C88.1562561,1129.13838 88.4352743,1129.23883 88.7142925,1129.23883 C89.0379536,1129.23883 89.2946504,1129.12722 89.5178649,1128.89285 C89.1495609,1128.52454 88.7142925,1128.21204 88.7142925,1127.64284 C88.7142925,1127.05133 89.1942038,1126.57141 89.7857224,1126.57141 C90.3549195,1126.57141 90.6674199,1127.00668 91.0357239,1127.37499 C91.2700991,1127.15177 91.4040279,1126.89508 91.4040279,1126.56025 Z M101.392879,1134.42857 C101.392879,1135.27678 101.046897,1136.10268 100.444217,1136.69419 L98.8035903,1138.32366 C98.200911,1138.92634 97.3861779,1139.25 96.5379626,1139.25 C95.6785865,1139.25 94.8638534,1138.91518 94.2611741,1138.30134 L91.9620643,1135.99107 C91.359385,1135.38839 91.0357239,1134.57366 91.0357239,1133.72544 C91.0357239,1132.84374 91.3928671,1132.00669 92.0178679,1131.39285 L91.0357239,1130.41071 C90.4218838,1131.03571 89.59599,1131.39285 88.7142925,1131.39285 C87.8660772,1131.39285 87.0401834,1131.05803 86.4375041,1130.45535 L84.1160728,1128.13392 C83.5022327,1127.52008 83.1785716,1126.7165 83.1785716,1125.85713 C83.1785716,1125.00891 83.5245542,1124.18302 84.1272335,1123.5915 L85.7678604,1121.96203 C86.3705397,1121.35936 87.1852728,1121.03569 88.0334881,1121.03569 C88.8928642,1121.03569 89.7075973,1121.37052 90.3102766,1121.98436 L92.6093865,1124.29463 C93.2120657,1124.89731 93.5357268,1125.71204 93.5357268,1126.56025 C93.5357268,1127.44195 93.1785836,1128.27901 92.5535828,1128.89285 L93.5357268,1129.87499 C94.1495669,1129.24999 94.9754607,1128.89285 95.8571582,1128.89285 C96.7053735,1128.89285 97.5312673,1129.22767 98.1339466,1129.83035 L100.455378,1132.15178 C101.069218,1132.76562 101.392879,1133.56919 101.392879,1134.42857 Z" id="link---FontAwesome"></path>
        </g>
    </g>
</svg>