<?xml version="1.0" encoding="UTF-8"?>
<svg width="18px" height="18px" viewBox="0 0 18 18" version="1.1" xmlns="http://www.w3.org/2000/svg" xmlns:xlink="http://www.w3.org/1999/xlink">
    <!-- Generator: Sketch 51.2 (57519) - http://www.bohemiancoding.com/sketch -->
    <title>linkedin - FontAwesome</title>
    <desc>Created with Sketch.</desc>
    <defs></defs>
    <g id="Headers" stroke="none" stroke-width="1" fill="none" fill-rule="evenodd">
        <g id="header-singlepost-simple" transform="translate(-215.000000, -1120.000000)" fill="#2F3238">
            <path d="M219.089849,1126.32421 L219.089849,1137.9375 L215.222657,1137.9375 L215.222657,1126.32421 L219.089849,1126.32421 Z M219.335943,1122.73826 C219.347661,1123.85155 218.50391,1124.74217 217.156253,1124.74217 L217.132815,1124.74217 C215.832032,1124.74217 215,1123.85155 215,1122.73826 C215,1121.60154 215.867189,1120.73436 217.17969,1120.73436 C218.50391,1120.73436 219.324224,1121.60154 219.335943,1122.73826 Z M225.078137,1127.97485 C225.586872,1127.17958 226.504608,1126.05467 228.55861,1126.05467 C231.101582,1126.05467 233.000021,1127.71874 233.000021,1131.28124 L233.000021,1137.9375 L229.144548,1137.9375 L229.144548,1131.72656 C229.144548,1130.16796 228.582047,1129.10155 227.187515,1129.10155 C226.121107,1129.10155 225.488294,1129.8164 225.207043,1130.5078 C225.113293,1130.76562 225.078137,1131.10546 225.078137,1131.45702 L225.078137,1137.9375 L221.222664,1137.9375 C221.269539,1127.41405 221.222664,1126.32421 221.222664,1126.32421 L225.078137,1126.32421 L225.078137,1127.97485 Z" id="linkedin---FontAwesome"></path>
        </g>
    </g>
</svg>