<?xml version="1.0" encoding="UTF-8"?>
<svg width="28px" height="28px" viewBox="0 0 28 28" version="1.1" xmlns="http://www.w3.org/2000/svg" xmlns:xlink="http://www.w3.org/1999/xlink">
    <!-- Generator: Sketch 51.1 (57501) - http://www.bohemiancoding.com/sketch -->
    <title>linkedin</title>
    <desc>Created with Sketch.</desc>
    <defs></defs>
    <g id="Page-1" stroke="none" stroke-width="1" fill="none" fill-rule="evenodd">
        <g id="v" transform="translate(-211.000000, -31.000000)">
            <g id="linkedin" transform="translate(211.000000, 31.000000)">
                <path d="M27.6190805,5.1785776 L27.6190805,22.4405029 C27.6190805,25.2995093 25.2995093,27.6190805 22.4405029,27.6190805 L5.1785776,27.6190805 C2.31957122,27.6190805 0,25.2995093 0,22.4405029 L0,5.1785776 C0,2.31957122 2.31957122,0 5.1785776,0 L22.4405029,0 C25.2995093,0 27.6190805,2.31957122 27.6190805,5.1785776 Z" id="Path-Copy-2" fill="#848891"></path>
                <path d="M7.98108362,9.72645399 L7.98108362,23.2394387 L3.48130064,23.2394387 L3.48130064,9.72645399 L7.98108362,9.72645399 Z M8.26743345,5.55392795 C8.28106916,6.84932002 7.29929832,7.88563368 5.73119213,7.88563368 L5.70392072,7.88563368 C4.19035735,7.88563368 3.22222222,6.84932002 3.22222222,5.55392795 C3.22222222,4.23126447 4.23126447,3.22222222 5.75846354,3.22222222 C7.29929832,3.22222222 8.25379774,4.23126447 8.26743345,5.55392795 Z M14.9489294,11.6471137 C15.5408826,10.7217457 16.6087412,9.41283275 18.9987341,9.41283275 C21.9576823,9.41283275 24.1666667,11.349103 24.1666667,15.4943576 L24.1666667,23.2394387 L19.6805194,23.2394387 L19.6805194,16.0125145 C19.6805194,14.1989656 19.0260055,12.9581163 17.4033565,12.9581163 C16.1625072,12.9581163 15.4261791,13.7898944 15.0989222,14.594401 C14.9898365,14.8943866 14.9489294,15.289822 14.9489294,15.6988932 L14.9489294,23.2394387 L10.4627821,23.2394387 C10.5173249,10.9945747 10.4627821,9.72645399 10.4627821,9.72645399 L14.9489294,9.72645399 L14.9489294,11.6471137 Z" id="linkedin---FontAwesome" fill="#F7F9FB"></path>
            </g>
        </g>
    </g>
</svg>