<?xml version="1.0" encoding="UTF-8"?>
<svg width="20px" height="17px" viewBox="0 0 20 17" version="1.1" xmlns="http://www.w3.org/2000/svg" xmlns:xlink="http://www.w3.org/1999/xlink">
    <!-- Generator: Sketch 51.2 (57519) - http://www.bohemiancoding.com/sketch -->
    <title>envelope - FontAwesome</title>
    <desc>Created with Sketch.</desc>
    <defs></defs>
    <g id="Headers" stroke="none" stroke-width="1" fill="none" fill-rule="evenodd">
        <g id="header-singlepost-simple" transform="translate(-117.000000, -1121.000000)" fill="#2F3238">
            <path d="M137.000024,1126.78124 L137.000024,1135.64286 C137.000024,1136.625 136.196451,1137.42857 135.214307,1137.42857 L118.785716,1137.42857 C117.803572,1137.42857 117,1136.625 117,1135.64286 L117,1126.78124 C117.334822,1127.14954 117.714287,1127.4732 118.127233,1127.75222 C119.979914,1129.01338 121.854917,1130.27455 123.674115,1131.60267 C124.611616,1132.29464 125.772332,1133.14285 126.988851,1133.14285 L127.011173,1133.14285 C128.227692,1133.14285 129.388408,1132.29464 130.325909,1131.60267 C132.145107,1130.28571 134.02011,1129.01338 135.883951,1127.75222 C136.285737,1127.4732 136.665202,1127.14954 137.000024,1126.78124 Z M137.000024,1123.49999 C137.000024,1124.74999 136.073683,1125.87722 135.091539,1126.55802 C133.350466,1127.76338 131.598232,1128.96874 129.868319,1130.18526 C129.142872,1130.68749 127.915192,1131.71428 127.011173,1131.71428 L126.988851,1131.71428 C126.084832,1131.71428 124.857152,1130.68749 124.131705,1130.18526 C122.401792,1128.96874 120.649558,1127.76338 118.919645,1126.55802 C118.127233,1126.02231 117,1124.76115 117,1123.74552 C117,1122.65177 117.591519,1121.71427 118.785716,1121.71427 L135.214307,1121.71427 C136.185291,1121.71427 137.000024,1122.51784 137.000024,1123.49999 Z" id="envelope---FontAwesome"></path>
        </g>
    </g>
</svg>