<?xml version="1.0" encoding="UTF-8"?>
<svg width="28px" height="28px" viewBox="0 0 28 28" version="1.1" xmlns="http://www.w3.org/2000/svg" xmlns:xlink="http://www.w3.org/1999/xlink">
    <!-- Generator: Sketch 51.1 (57501) - http://www.bohemiancoding.com/sketch -->
    <title>medium</title>
    <desc>Created with Sketch.</desc>
    <defs></defs>
    <g id="Page-1" stroke="none" stroke-width="1" fill="none" fill-rule="evenodd">
        <g id="v" transform="translate(-272.000000, -31.000000)">
            <g id="medium" transform="translate(272.000000, 31.000000)">
                <path d="M27.6190805,5.1785776 L27.6190805,22.4405029 C27.6190805,25.2995093 25.2995093,27.6190805 22.4405029,27.6190805 L5.1785776,27.6190805 C2.31957122,27.6190805 0,25.2995093 0,22.4405029 L0,5.1785776 C0,2.31957122 2.31957122,0 5.1785776,0 L22.4405029,0 C25.2995093,0 27.6190805,2.31957122 27.6190805,5.1785776 Z" id="Path" fill="#ffffff"></path>
                <path d="M10.1998078,8.14096602 L10.1998078,21.8506944 C10.1998078,22.2130146 10.0244916,22.5519593 9.62710813,22.5519593 C9.48685516,22.5519593 9.35828993,22.5168961 9.24141245,22.4584573 L3.80660962,19.7352121 C3.47935268,19.5715836 3.22222222,19.1508247 3.22222222,18.8001922 L3.22222222,5.47615947 C3.22222222,5.18396577 3.3624752,4.91514757 3.67804439,4.91514757 C3.86504836,4.91514757 4.02867684,5.00864955 4.19230531,5.09046379 L10.1647445,8.08252728 C10.1764323,8.09421503 10.1998078,8.12927827 10.1998078,8.14096602 Z M10.9478237,9.32142857 L17.1890811,19.4430184 L10.9478237,16.3340774 L10.9478237,9.32142857 Z M24.1666667,9.53180804 L24.1666667,21.8506944 C24.1666667,22.2363901 23.9445995,22.5052083 23.5589038,22.5052083 C23.3602121,22.5052083 23.1732081,22.4467696 23.0095796,22.3532676 L17.8552827,19.781963 L24.1666667,9.53180804 Z M24.1316034,8.12927827 C24.1316034,8.17602927 18.0890377,17.9820499 17.6215278,18.7300657 L13.0633061,11.3200335 L16.8501364,5.16059028 C16.9787016,4.95021081 17.2124566,4.83333333 17.4578993,4.83333333 C17.563089,4.83333333 17.6682788,4.85670883 17.7617808,4.90345982 L24.0848524,8.05915179 C24.1082279,8.07083953 24.1316034,8.09421503 24.1316034,8.12927827 Z" id="medium---FontAwesome" fill="#2f3238"></path>
            </g>
        </g>
    </g>
</svg>
