<?xml version="1.0" encoding="UTF-8"?>
<svg width="28px" height="28px" viewBox="0 0 28 28" version="1.1" xmlns="http://www.w3.org/2000/svg" xmlns:xlink="http://www.w3.org/1999/xlink">
    <!-- Generator: Sketch 51.1 (57501) - http://www.bohemiancoding.com/sketch -->
    <title>twitters</title>
    <desc>Created with Sketch.</desc>
    <defs></defs>
    <g id="Page-1" stroke="none" stroke-width="1" fill="none" fill-rule="evenodd">
        <g id="v" transform="translate(-150.000000, -31.000000)" fill="#ffffff">
            <g id="twitters" transform="translate(150.000000, 31.000000)">
                <path d="M23.0159005,8.66692501 C22.3326159,8.97260494 21.613369,9.17039784 20.8401786,9.27828487 C21.6313502,8.81077439 22.2247289,8.05556516 22.5124276,7.17448772 C21.7751996,7.60603585 20.9660468,7.92969695 20.1029506,8.0915275 C19.419666,7.35429944 18.4307015,6.90477014 17.3518312,6.90477014 C15.2660152,6.90477014 13.575785,8.59500033 13.575785,10.6808163 C13.575785,10.9685151 13.5937662,11.274195 13.6656909,11.5439126 C10.5189858,11.382082 7.73190406,9.88964473 5.86186215,7.58805468 C5.53820105,8.14547102 5.34040815,8.81077439 5.34040815,9.49405894 C5.34040815,10.8066845 5.95176801,11.9574795 6.97669482,12.6407641 C6.3473538,12.6227829 5.75397511,12.4429712 5.1785776,12.1732536 L5.1785776,12.2092159 C5.1785776,14.0432955 6.56312786,15.5716952 8.2893204,15.9133374 C7.9656593,16.0032433 7.71392289,16.0571868 7.37228061,16.0571868 C7.13852537,16.0571868 6.90477014,16.0212245 6.6710149,15.9852621 C7.15650655,17.4776994 8.54105681,18.5745509 10.1953247,18.6105133 C8.90068025,19.6174589 7.28237475,20.2288188 5.5022387,20.2288188 C5.19655877,20.2288188 4.89087885,20.2108376 4.60318009,20.1748752 C6.27542911,21.2357644 8.25335805,21.8651054 10.3931175,21.8651054 C17.33385,21.8651054 21.1458585,16.1111303 21.1458585,11.1123644 C21.1458585,10.9505339 21.1458585,10.7887033 21.1278774,10.6268728 C21.8651054,10.1054188 22.5124276,9.44011542 23.0159005,8.66692501 Z M27.6190805,5.1785776 L27.6190805,22.4405029 C27.6190805,25.2995093 25.2995093,27.6190805 22.4405029,27.6190805 L5.1785776,27.6190805 C2.31957122,27.6190805 0,25.2995093 0,22.4405029 L0,5.1785776 C0,2.31957122 2.31957122,0 5.1785776,0 L22.4405029,0 C25.2995093,0 27.6190805,2.31957122 27.6190805,5.1785776 Z" id="twitter-square---FontAwesome"></path>
            </g>
        </g>
    </g>
</svg>
