<?xml version="1.0" encoding="UTF-8"?>
<svg width="21px" height="17px" viewBox="0 0 21 17" version="1.1" xmlns="http://www.w3.org/2000/svg" xmlns:xlink="http://www.w3.org/1999/xlink">
    <!-- Generator: Sketch 51.2 (57519) - http://www.bohemiancoding.com/sketch -->
    <title>twitter - FontAwesome</title>
    <desc>Created with Sketch.</desc>
    <defs></defs>
    <g id="Headers" stroke="none" stroke-width="1" fill="none" fill-rule="evenodd">
        <g id="header-singlepost-simple" transform="translate(-180.000000, -1121.000000)" fill="#2F3238">
            <path d="M200.792436,1123.5223 C200.227703,1124.34373 199.521787,1125.07532 198.713192,1125.66572 C198.726027,1125.84541 198.726027,1126.0251 198.726027,1126.20479 C198.726027,1131.68526 194.554705,1138 186.930812,1138 C184.582037,1138 182.400114,1137.31975 180.564733,1136.13895 C180.898439,1136.17745 181.219309,1136.19029 181.56585,1136.19029 C183.50391,1136.19029 185.287953,1135.53571 186.71262,1134.41908 C184.890073,1134.38058 183.362727,1133.18694 182.836499,1131.54408 C183.093196,1131.58258 183.349892,1131.60825 183.619424,1131.60825 C183.991634,1131.60825 184.363844,1131.55691 184.710385,1131.46707 C182.810829,1131.08202 181.386162,1129.41349 181.386162,1127.39842 C181.386162,1127.38559 181.386162,1127.35992 181.386162,1127.34709 C181.93806,1127.65512 182.579802,1127.84764 183.260049,1127.87331 C182.143418,1127.12889 181.411832,1125.85824 181.411832,1124.42074 C181.411832,1123.65065 181.617189,1122.94474 181.976565,1122.32866 C184.017304,1124.84429 187.08483,1126.48715 190.524566,1126.66684 C190.460392,1126.3588 190.421887,1126.03793 190.421887,1125.71706 C190.421887,1123.43246 192.270104,1121.57141 194.56754,1121.57141 C195.76118,1121.57141 196.839306,1122.07197 197.596561,1122.88056 C198.533504,1122.70087 199.431943,1122.35433 200.227703,1121.87945 C199.919667,1122.84206 199.26509,1123.65065 198.405156,1124.16405 C199.23942,1124.0742 200.048015,1123.84318 200.792436,1123.5223 Z" id="twitter---FontAwesome"></path>
        </g>
    </g>
</svg>