<?xml version="1.0" encoding="UTF-8"?>
<svg width="28px" height="28px" viewBox="0 0 28 28" version="1.1" xmlns="http://www.w3.org/2000/svg" xmlns:xlink="http://www.w3.org/1999/xlink">
    <!-- Generator: Sketch 51.1 (57501) - http://www.bohemiancoding.com/sketch -->
    <title>vimeo</title>
    <desc>Created with Sketch.</desc>
    <defs></defs>
    <g id="Page-1" stroke="none" stroke-width="1" fill="none" fill-rule="evenodd">
        <g id="v" transform="translate(-333.000000, -31.000000)" fill="#848891">
            <g id="vimeo" transform="translate(333.000000, 31.000000)">
                <path d="M23.1348678,9.13218466 C23.2602115,6.53577922 22.2932743,5.22862337 20.2519624,5.15699839 C17.4944008,5.06746717 15.6321514,6.62531044 14.6652142,9.83052819 C15.166589,9.61565326 15.6500576,9.49030955 16.1335262,9.49030955 C17.1362759,9.49030955 17.583932,10.0633094 17.4585883,11.209309 C17.4048696,11.8897463 16.9572135,12.892496 16.1335262,14.1996518 C15.2919327,15.5247139 14.6652142,16.1693387 14.2533706,16.1693387 C13.7161832,16.1693387 13.2506209,15.166589 12.7850585,13.1431834 C12.6418086,12.5343711 12.3732149,11.0302466 11.9792775,8.57709108 C11.6211526,6.32090428 10.6721217,5.26443586 9.11427841,5.40768582 C8.46965361,5.47931079 7.46690393,6.05231062 6.17765433,7.19831026 C5.21071713,8.03990375 4.26168617,8.91730972 3.27684273,9.77680946 L4.20796744,10.9765278 C5.10327966,10.3677155 5.62256075,10.0454031 5.76581071,10.0454031 C6.44624799,10.0454031 7.09087279,11.1197778 7.68177886,13.2506209 C8.21896619,15.2203078 8.75615352,17.1720884 9.29334086,19.1417753 C10.0991219,21.2726184 11.0660591,22.346993 12.2299649,22.346993 C14.0922144,22.346993 16.3842136,20.5921811 19.0880566,17.0825572 C21.7023682,13.7161832 23.0632428,11.0660591 23.1348678,9.13218466 Z M27.5039914,5.15699839 L27.5039914,22.346993 C27.5039914,25.1940859 25.1940859,27.5039914 22.346993,27.5039914 L5.15699839,27.5039914 C2.30990553,27.5039914 0,25.1940859 0,22.346993 L0,5.15699839 C0,2.30990553 2.30990553,0 5.15699839,0 L22.346993,0 C25.1940859,0 27.5039914,2.30990553 27.5039914,5.15699839 Z" id="vimeo-square---FontAwesome"></path>
            </g>
        </g>
    </g>
</svg>